#!OML:ASF F:\VICON\USERDATA\INSTALL\rory3\rory3.ASF
:FULLY-SPECIFIED
:DEGREES
191
root 0.5814 18.1937 10.7521 -165.69 -8.25788 177.481
lowerback 6.94076 1.54147 -1.6136
upperback 1.70548 1.87359 1.23858
thorax -2.22369 0.901731 2.01931
lowerneck -13.8283 2.03461 -10.0911
upperneck 39.0321 0.609992 3.56279
head 16.1666 -2.02796 3.1027
rclavicle -1.35174e-014 -1.90833e-014
rhumerus -27.3817 -3.23138 -81.6886
rradius 35.7293
rwrist 17.5837
rhand -18.8888 1.80618
rfingers 7.12502
rthumb 7.41252 -28.044
lclavicle -1.35174e-014 -1.90833e-014
lhumerus -31.0933 9.68961 81.7991
lradius 32.3018
lwrist -2.69198
lhand -17.4852 24.8519
lfingers 7.12502
lthumb 8.76712 54.6498
rfemur -2.96419 0.906638 23.8949
rtibia -7.95139e-015
rfoot -9.48696 -6.94527
rtoes 15.7992
lfemur -65.4852 -0.871911 -27.0567
ltibia 84.9557
lfoot -20.1955 -7.11876
ltoes -17.3283
192
root 0.569632 18.1963 10.7011 -165.539 -8.23038 177.409
lowerback 6.88514 1.53269 -1.7352
upperback 1.65168 1.85762 1.19282
thorax -2.24975 0.897041 2.04236
lowerneck -13.8619 2.02981 -10.2145
upperneck 39.0119 0.584553 3.74683
head 16.1626 -2.0278 3.20266
rclavicle -1.03368e-014 -7.95139e-015
rhumerus -27.4127 -3.02251 -81.7592
rradius 35.9004
rwrist 17.409
rhand -18.5184 1.41429
rfingers 7.12502
rthumb 7.76997 -28.4229
lclavicle -1.03368e-014 -7.95139e-015
lhumerus -31.1134 9.71718 81.7728
lradius 32.3774
lwrist -2.66065
lhand -17.4799 24.9768
lfingers 7.12502
lthumb 8.77225 54.7745
rfemur -2.94102 0.934699 23.7982
rtibia -3.81667e-014
rfoot -9.51554 -7.00005
rtoes 16.1359
lfemur -65.4109 -0.7953 -27.1927
ltibia 84.9962
lfoot -20.4362 -7.11684
ltoes -17.3984
193
root 0.561182 18.2003 10.6501 -165.469 -8.16115 177.234
lowerback 6.94113 1.54582 -2.011
upperback 1.62649 1.85541 1.12667
thorax -2.3133 0.899182 2.12759
lowerneck -14.0011 2.03231 -10.2474
upperneck 39.0668 0.595936 3.81372
head 16.2232 -2.01978 3.24348
rclavicle 2.84262e-014 -9.54166e-015
rhumerus -27.4042 -2.93027 -81.8194
rradius 36.0674
rwrist 17.1963
rhand -18.3556 1.44095
rfingers 7.12502
rthumb 7.92712 -28.3904
lclavicle 2.84262e-014 -9.54166e-015
lhumerus -31.1108 9.69014 81.7492
lradius 32.4728
lwrist -2.63092
lhand -17.5174 25.027
lfingers 7.12502
lthumb 8.73607 54.8262
rfemur -2.81075 0.972364 23.604
rtibia 9.54166e-015
rfoot -9.55271 -7.07104
rtoes 16.6559
lfemur -65.1825 -0.693767 -27.4322
ltibia 84.9568
lfoot -20.66 -7.02507
ltoes -17.6491
194
root 0.550155 18.2062 10.5943 -165.308 -8.01348 177.109
lowerback 6.8326 1.58652 -2.26896
upperback 1.58388 1.89644 1.05454
thorax -2.30482 0.923412 2.19628
lowerneck -14.0927 2.03102 -10.1981
upperneck 39.1085 0.587296 3.82415
head 16.2685 -2.01588 3.24027
rclavicle -2.18663e-015 -1.19271e-014
rhumerus -27.4333 -2.85 -81.8714
rradius 36.1821
rwrist 17.0721
rhand -18.7543 1.9553
rfingers 7.12502
rthumb 7.54231 -27.8902
lclavicle -2.18663e-015 -1.19271e-014
lhumerus -31.1013 9.54454 81.7344
lradius 32.5724
lwrist -2.64034
lhand -17.3882 24.9121
lfingers 7.12502
lthumb 8.86075 54.7061
rfemur -3.92338 1.09972 23.4397
rtibia 2.34354
rfoot -10.5956 -6.637
rtoes 17.354
lfemur -65.0763 -0.539574 -27.6576
ltibia 84.8545
lfoot -20.7866 -6.99247
ltoes -17.8349
195
root 0.536318 18.221 10.5345 -165.196 -7.8915 177.067
lowerback 6.78577 1.62159 -2.39738
upperback 1.50891 1.93814 0.974051
thorax -2.3598 0.948558 2.18154
lowerneck -14.1608 2.02804 -10.2083
upperneck 39.1647 0.529197 3.97224
head 16.3174 -2.02548 3.30027
rclavicle -1.17283e-014 6.36111e-015
rhumerus -27.5174 -2.88705 -81.9302
rradius 36.2225
rwrist 17.2347
rhand -19.09 2.31711
rfingers 7.12502
rthumb 7.21832 -27.5398
lclavicle -1.17283e-014 6.36111e-015
lhumerus -31.0734 9.42943 81.6675
lradius 32.5343
lwrist -2.69851
lhand -17.3205 24.8201
lfingers 7.12502
lthumb 8.92608 54.6113
rfemur -4.43091 1.22094 23.3519
rtibia 3.62947
rfoot -10.9787 -6.52992
rtoes 17.8506
lfemur -64.895 -0.378388 -27.7868
ltibia 84.6613
lfoot -20.752 -7.13685
ltoes -17.7922
196
root 0.52215 18.2355 10.4762 -165.15 -7.82113 176.982
lowerback 6.81472 1.61773 -2.54503
upperback 1.49491 1.92088 0.893162
thorax -2.39143 0.941741 2.1816
lowerneck -14.4001 2.02009 -10.1827
upperneck 39.2458 0.533091 4.01286
head 16.419 -2.01533 3.32039
rclavicle -4.25399e-014 4.77083e-015
rhumerus -27.4471 -2.92544 -82.0289
rradius 36.2407
rwrist 17.4331
rhand -19.073 2.12757
rfingers 7.12502
rthumb 7.23472 -27.7288
lclavicle -4.25399e-014 4.77083e-015
lhumerus -30.8908 9.49528 81.5945
lradius 32.3791
lwrist -2.78794
lhand -17.5329 24.647
lfingers 7.12502
lthumb 8.72115 54.4468
rfemur -4.75431 1.27918 23.2472
rtibia 4.61513
rfoot -11.135 -6.65221
rtoes 17.1951
lfemur -64.5787 -0.322659 -27.8873
ltibia 84.4695
lfoot -20.7285 -7.373
ltoes -17.0202
